<svg width="96" height="81" viewBox="0 0 96 81" fill="none" xmlns="http://www.w3.org/2000/svg">
<path d="M1.02958 38.2441H5.39677C6.39779 38.2442 6.41532 38.4446 6.41532 39.4248C6.41532 39.4248 6.41532 48.4828 6.41532 50.6475C6.41534 52.8118 6.56539 53.5592 9.18095 53.6006C12.0369 53.6449 20.1652 53.6006 21.9905 53.6006C23.7547 53.6006 23.1913 53.2711 24.9016 55.2246C26.612 57.1781 28.7041 56.2303 32.0345 51.3857C35.3649 46.5411 36.8612 42.8864 37.4202 42.083C37.5774 41.8572 38.1969 41.4512 38.4388 41.6396C39.9133 42.7914 40.7945 43.1898 42.2239 44.002C45.2807 45.7399 48.0589 45.4263 46.4446 47.6943C44.21 50.8304 22.9902 68.5783 14.1302 79.7363C11.4201 83.1494 15.3782 69.3815 20.2151 65.0566C22.2274 63.2584 20.785 61.6184 19.8069 60.0977C18.9088 58.7038 17.7137 56.8828 15.7981 56.8828C14.7785 56.8828 5.88314 56.8486 2.77665 56.8486C-0.329647 56.8486 0.0110237 53.8955 0.0110237 53.8955V39.4248C0.0110314 38.0902 0.0951121 38.2441 1.02958 38.2441ZM68.01 55.3281C74.0754 59.7195 71.7087 69.5382 65.9593 74.0596C61.7176 77.3937 55.5687 77.9784 49.0257 77.4424C33.6101 76.1784 29.1249 69.436 28.2454 68.3369C27.3663 67.2384 31.9276 62.6905 33.3763 63.1328C36.5146 64.0941 37.3521 66.4216 41.3304 67.5557C71.4055 76.1368 68.0233 55.4089 68.01 55.3281ZM39.2776 11.8779C39.2776 11.8779 30.4636 21.5182 36.6917 28.498C42.9232 35.4808 61.4402 39.2319 65.0765 41.1973C66.3647 41.8942 70.4102 43.8905 72.0638 44.8887C79.8497 49.5858 85.5919 63.1683 68.01 74.3193C68.0724 74.2449 77.255 63.2688 70.5765 55.8477C68.3726 53.398 66.008 51.3952 61.596 49.3428C56.3878 46.9198 49.1637 45.529 44.1507 43.0986C37.7853 40.0126 33.6777 36.1792 32.094 33.4727C28.522 27.3684 28.7011 17.2276 39.2776 11.8779ZM56.0638 49.3076C57.2122 48.943 59.1378 49.5954 60.845 50.3838C63.1201 51.4336 65.3006 52.6925 64.4534 53.3584C63.5289 54.086 61.516 54.1301 60.0286 54.4756C56.1508 55.3793 50.896 56.326 43.3821 60.5312C38.9469 63.0133 40.0462 60.0098 40.0462 60.0098C40.0913 59.9534 46.0927 52.485 56.0638 49.3076ZM11.0559 47.8428C11.5463 47.8429 11.9446 48.2476 11.9446 48.7451V50.1895C11.9445 50.6884 11.5463 51.0917 11.0559 51.0918H9.63212C9.14016 51.0918 8.74254 50.6885 8.74247 50.1895V48.7451C8.74252 48.2475 9.14015 47.8428 9.63212 47.8428H11.0559ZM15.2766 47.8428C15.7672 47.8428 16.1662 48.2475 16.1663 48.7451V50.1895C16.1662 50.6885 15.7671 51.0918 15.2766 51.0918H13.8528C13.3611 51.0915 12.9642 50.6883 12.9641 50.1895V48.7451C12.9642 48.2477 13.3611 47.843 13.8528 47.8428H15.2766ZM27.5218 39.1787C28.654 39.1788 29.7405 39.6351 30.5413 40.4473C31.3419 41.2594 31.7921 42.3612 31.7923 43.5098C31.7923 46.2127 28.8361 49.0286 27.8431 49.8984C27.7507 49.969 27.6374 50.0068 27.5218 50.0068C27.4063 50.0068 27.2938 49.9688 27.2015 49.8984C26.2087 49.0289 23.2522 46.2129 23.2522 43.5098C23.2524 42.3612 23.7026 41.2594 24.5032 40.4473C25.3038 39.6353 26.3896 39.1788 27.5218 39.1787ZM11.0559 43.5605C11.5463 43.5607 11.9445 43.9655 11.9446 44.4629V45.9072C11.9446 46.4062 11.5464 46.8094 11.0559 46.8096H9.63212C9.14012 46.8096 8.74248 46.4063 8.74247 45.9072V44.4629C8.74258 43.9654 9.14019 43.5605 9.63212 43.5605H11.0559ZM15.2766 43.5605C15.7671 43.5605 16.1662 43.9654 16.1663 44.4629V45.9072C16.1663 46.4063 15.7672 46.8096 15.2766 46.8096H13.8528C13.361 46.8093 12.9642 46.4061 12.9641 45.9072V44.4629C12.9643 43.9655 13.3611 43.5608 13.8528 43.5605H15.2766ZM19.3528 43.5605C19.8433 43.5605 20.2424 43.9654 20.2425 44.4629V45.9072C20.2425 46.4063 19.8434 46.8096 19.3528 46.8096H17.929C17.4372 46.8093 17.0403 46.4061 17.0403 45.9072V44.4629C17.0404 43.9655 17.4373 43.5608 17.929 43.5605H19.3528ZM27.5218 41.8857C26.6376 41.8859 25.9214 42.613 25.9212 43.5098C25.9212 44.4067 26.6375 45.1336 27.5218 45.1338C28.4059 45.1337 29.1233 44.4067 29.1233 43.5098C29.1232 42.613 28.4058 41.8859 27.5218 41.8857ZM15.2766 39.2793C15.7671 39.2793 16.1661 39.6832 16.1663 40.1807V41.625C16.1663 42.1241 15.7672 42.5273 15.2766 42.5273H13.8528C13.361 42.5271 12.9641 42.1239 12.9641 41.625V40.1807C12.9643 39.6834 13.3612 39.2796 13.8528 39.2793H15.2766ZM19.4983 39.2793C19.9888 39.2793 20.3878 39.6832 20.388 40.1807V41.625C20.388 42.1241 19.9889 42.5273 19.4983 42.5273H18.0745C17.5827 42.5271 17.1858 42.1239 17.1858 41.625V40.1807C17.186 39.6834 17.5828 39.2796 18.0745 39.2793H19.4983ZM38.4388 16.6855C40.2787 12.9203 50.7792 3.44975 66.9641 14.084H66.9651C68.0663 14.8055 69.1933 15.6246 70.346 16.541C72.2776 18.0796 74.7017 19.6088 76.7337 21.7646C87.7823 33.4766 95.9477 16.8767 95.9749 16.8213C91.0302 41.4033 78.1689 33.4123 73.3987 29.8301C68.6272 26.2479 65.0647 30.8149 61.596 33.2129C58.4117 35.4145 65.1888 38.9365 65.1888 38.9365C65.1888 38.9365 45.0344 32.3299 46.7171 31.1309C46.9412 30.9714 47.2364 30.782 47.5813 30.5635C49.8303 29.143 54.2321 26.4453 55.4388 22.0244C57.2856 15.2605 48.4403 15.306 43.6731 17.791C41.433 18.959 40.1421 21.5729 40.0198 24.0166C39.8815 26.7719 41.0716 29.3105 41.0716 29.3105C39.0483 26.9303 37.3616 25.3143 36.9788 23.4346C36.4491 20.8315 37.4242 18.7615 38.4388 16.6855ZM12.388 29.0547C14.5277 29.0547 19.0365 29.0889 19.8069 29.0889C20.6293 29.0889 20.7522 29.2605 20.8265 29.5322C21.1349 30.6518 21.1746 33.5186 23.7376 33.5186C26.9221 33.5182 26.6487 29.2363 26.6487 29.2363H28.3948C28.3948 29.2363 29.4955 34.3534 30.2874 35.1426C30.8682 35.7214 30.2774 36.1767 29.8509 36.1768C25.6805 36.1768 1.16781 36.1664 1.17509 36.1768C1.16891 36.1783 0.593055 36.3127 0.593055 34.5518C0.59319 32.7812 1.37471 29.2363 3.7952 29.2363C5.21442 29.2363 5.68778 29.4329 5.68778 30.5654C5.68779 31.4056 6.94695 33.2236 8.16239 33.2236C10.5595 33.2233 11.475 29.7027 11.8011 29.3838C12.028 29.1624 12.1187 29.0547 12.388 29.0547ZM8.53641 25.6924C9.05295 25.6925 9.47174 26.0233 9.47196 26.4307V31.3037C9.47196 31.7112 9.05308 32.0419 8.53641 32.042H7.78837C7.27162 32.042 6.85184 31.7112 6.85184 31.3037V26.4307C6.85206 26.0233 7.27176 25.6924 7.78837 25.6924H8.53641ZM23.9661 25.6924C24.4826 25.6925 24.9014 26.0233 24.9016 26.4307V31.3037C24.9016 31.7112 24.4828 32.0419 23.9661 32.042H23.2181C22.7013 32.042 22.2815 31.7112 22.2815 31.3037V26.4307C22.2818 26.0233 22.7014 25.6924 23.2181 25.6924H23.9661ZM15.8724 0C15.9466 0.0280552 16.072 0.0314681 16.139 0.0654297C16.2874 0.140756 16.3651 0.292876 16.4554 0.431641C16.5376 0.559434 16.621 0.688602 16.7063 0.818359C16.7616 0.90395 16.818 0.989597 16.8743 1.07617C16.8888 1.09823 16.9206 1.12488 16.9309 1.14844C16.9347 1.17895 16.9387 1.21069 16.9436 1.24219C16.98 1.3647 16.9866 1.51388 16.9866 1.68652V5.49902C17.0432 5.53742 17.0852 5.6008 17.1331 5.64941C17.2475 5.76655 17.3623 5.88384 17.4768 6.00098C17.5612 6.08798 17.6292 6.1634 17.7005 6.2666C17.7077 6.27683 17.7296 6.29003 17.7356 6.30176C17.7404 6.33325 17.7454 6.36499 17.7493 6.39551C17.7827 6.51058 17.7837 6.64365 17.8128 6.77637C17.8147 6.83138 17.8177 6.88639 17.8206 6.94141C17.8366 7.01819 17.8236 7.10822 17.8411 7.19238C17.9037 7.48323 17.8625 7.8273 17.9251 8.11816C17.9318 8.23026 17.9388 8.34297 17.9456 8.45605C17.9689 8.56084 17.9497 8.67932 17.9729 8.79297C17.9904 8.86973 17.9765 8.9598 17.9954 9.04395C18.0463 9.28315 18.0138 9.55962 18.0647 9.79883C18.0714 9.91099 18.0784 10.0236 18.0852 10.1357C18.1375 10.3748 18.1061 10.6506 18.1556 10.8896C18.1585 10.9467 18.1604 11.0044 18.1624 11.0615C18.1958 11.2194 18.1788 11.4066 18.2122 11.5645C18.2141 11.6196 18.2161 11.6744 18.219 11.7285C18.2467 11.8614 18.2236 12.015 18.2542 12.1523C18.2833 12.2926 18.2918 12.47 18.2962 12.6191C18.3485 12.6324 18.3907 12.6707 18.4358 12.6914C18.6037 12.7682 18.7678 12.8489 18.927 12.9346C19.3098 13.1398 19.7083 13.3129 20.0882 13.5166C20.2934 13.6259 20.5965 13.7253 20.6839 13.9482C20.7506 14.1194 20.7386 14.3539 20.7386 14.5928V15.6768C20.8244 15.6974 20.9133 15.7702 20.9847 15.8145C21.104 15.8883 21.2325 15.9423 21.3489 16.0146C21.4406 16.0707 21.538 16.1006 21.6282 16.1582C21.9281 16.3457 22.26 16.4951 22.5599 16.6826C22.6851 16.7609 22.9212 16.8424 23.0013 16.9561C23.0213 16.9839 23.03 17.0118 23.0501 17.041C23.0632 17.0602 23.0912 17.0813 23.0999 17.1064C23.1087 17.1351 23.1583 17.3552 23.1556 17.3721C23.1235 17.567 23.0399 17.7268 22.9729 17.8818C22.8201 18.2361 22.6541 18.5804 22.5042 18.9287C22.0501 19.9843 21.5638 21.0108 21.1097 22.0664C20.9743 22.3838 20.8221 22.6972 20.6839 23.0205C20.6359 23.134 20.5804 23.2473 20.5296 23.3652C20.5179 23.3933 20.49 23.4265 20.4798 23.459C20.4729 23.691 20.466 23.9232 20.4593 24.1553C20.436 24.2645 20.4694 24.4053 20.4446 24.5205C20.4098 24.6873 20.4536 24.8928 20.4173 25.0596C20.4058 25.1171 20.4211 25.1965 20.4095 25.2451C20.3978 25.3012 20.4123 25.3785 20.4036 25.4258C20.3907 25.4818 20.4069 25.5583 20.3968 25.6055C20.372 25.7192 20.4054 25.8571 20.3821 25.9648V26.1221C20.3792 26.2342 20.3834 26.4025 20.3616 26.5088C20.3587 26.6288 20.3567 26.749 20.3548 26.8682C20.3344 26.9597 20.3634 27.0823 20.3401 27.1768C20.2877 27.3967 20.26 27.5152 20.1028 27.6289C20.0738 27.6511 20.0474 27.6879 20.011 27.7012C19.8233 27.7749 19.5556 27.7588 19.2981 27.7588H12.4485C12.0849 27.7588 11.8274 27.7687 11.6165 27.6152C11.4928 27.5252 11.4546 27.351 11.4124 27.1768C11.3906 27.0823 11.4186 26.9597 11.3997 26.8682C11.3968 26.749 11.3938 26.6288 11.3919 26.5088C11.3557 26.3407 11.3993 26.1329 11.3645 25.9648C11.3514 25.9088 11.3679 25.8314 11.3577 25.7842C11.3446 25.7281 11.3601 25.6512 11.3499 25.6055C11.3383 25.5495 11.3531 25.473 11.3431 25.4258C11.3183 25.3093 11.353 25.1688 11.3284 25.0596C11.3051 24.9459 11.338 24.808 11.3147 24.7002V24.542C11.3075 24.4239 11.318 24.2688 11.2933 24.1553C11.2865 23.9232 11.2795 23.691 11.2727 23.459C11.264 23.4265 11.236 23.3933 11.2229 23.3652C11.1721 23.2473 11.118 23.134 11.0686 23.0205C10.9304 22.6987 10.7797 22.3838 10.6429 22.0664C10.2004 21.0372 9.72551 20.037 9.28446 19.0078C9.12294 18.6329 8.94352 18.2626 8.78055 17.8818C8.74566 17.8022 8.69345 17.7164 8.66141 17.6367C8.65172 17.5895 8.6428 17.5414 8.63407 17.4932C8.62388 17.4577 8.59114 17.391 8.59696 17.3496C8.67562 16.8537 8.94536 16.843 9.28446 16.6318C9.67743 16.3868 10.1103 16.1953 10.5032 15.9502C10.6225 15.8765 10.7501 15.8213 10.8665 15.749C10.8941 15.7313 10.9994 15.6974 11.014 15.6768V14.1846C11.0561 14.1242 11.0412 14.0206 11.0686 13.9482C11.1113 13.8902 11.1539 13.8324 11.1956 13.7754C11.3863 13.6322 11.6267 13.5257 11.8538 13.4238C11.9426 13.384 12.0316 13.3201 12.1204 13.2803C12.3425 13.1789 12.5594 13.0712 12.7708 12.957C12.858 12.9099 12.9395 12.8762 13.0296 12.835C13.1184 12.7951 13.2074 12.7313 13.2962 12.6914C13.3559 12.6648 13.4559 12.6555 13.4573 12.5684C13.4965 12.5019 13.4668 12.3225 13.4856 12.2324C13.5308 12.0213 13.503 11.7756 13.5481 11.5645C13.551 11.5064 13.553 11.4486 13.555 11.3916C13.5826 11.2632 13.5703 11.1055 13.5979 10.9756C13.5999 10.9185 13.6019 10.8608 13.6048 10.8027C13.6266 10.7009 13.6089 10.5828 13.6321 10.4736C13.6481 10.3969 13.6352 10.3068 13.6526 10.2227C13.7109 9.95539 13.673 9.64762 13.7298 9.38184C13.7602 9.24313 13.7373 9.08931 13.7649 8.95801C13.7814 8.73372 13.7983 8.50848 13.8147 8.2832C13.8306 8.20654 13.8173 8.11768 13.8362 8.03223C13.8521 7.95554 13.8378 7.86674 13.8567 7.78125C13.9134 7.51408 13.8771 7.20854 13.9339 6.94141C13.9358 6.8864 13.9378 6.83137 13.9407 6.77637C13.9683 6.64365 13.9684 6.51351 14.0032 6.39551C14.0081 6.36499 14.013 6.33325 14.0179 6.30176C14.0514 6.22512 14.1617 6.11768 14.22 6.05859C14.3413 5.93168 14.463 5.80465 14.5843 5.67773C14.6453 5.61878 14.7058 5.55896 14.7659 5.49902V1.39258C14.8096 1.32761 14.79 1.22522 14.8235 1.14844C14.8527 1.0792 14.9225 1.01012 14.9632 0.948242C15.067 0.78877 15.1699 0.630151 15.2718 0.473633C15.3231 0.395012 15.3737 0.317861 15.4241 0.243164C15.4415 0.218075 15.4507 0.182708 15.4739 0.165039C15.5118 0.135506 15.5928 0.0711127 15.635 0.0576172C15.7107 0.0325443 15.8126 0.0426484 15.8724 0ZM62.6761 25.8496H62.677H62.6761ZM64.2434 24.4258H64.2444H64.2434ZM77.5061 4.07129C81.3315 4.07129 84.4319 7.2162 84.4319 11.0967C84.4318 14.9756 81.3315 18.1211 77.5061 18.1211C73.6795 18.1209 70.5795 14.9755 70.5794 11.0967C70.5794 7.2163 73.6795 4.07146 77.5061 4.07129Z" fill="white"/>
</svg>
